<?xml version="1.0" standalone="no"?>
<!DOCTYPE svg PUBLIC "-//W3C//DTD SVG 20010904//EN"
 "http://www.w3.org/TR/2001/REC-SVG-20010904/DTD/svg10.dtd">
<svg version="1.0" xmlns="http://www.w3.org/2000/svg"
 width="1024.000000pt" height="1024.000000pt" viewBox="0 0 1024.000000 1024.000000"
 preserveAspectRatio="xMidYMid meet">

<g transform="translate(0.000000,1024.000000) scale(0.100000,-0.100000)"
fill="#000000" stroke="none">
<path d="M0 5120 l0 -5120 5120 0 5120 0 0 5120 0 5120 -2416 0 c-1572 0
-2415 -3 -2412 -10 2 -5 55 -65 119 -132 63 -68 153 -166 199 -218 46 -52 154
-167 240 -255 86 -88 207 -219 268 -292 108 -127 114 -132 182 -159 51 -20 70
-32 68 -43 -5 -23 -45 -25 -89 -6 -41 19 -69 15 -69 -9 0 -9 16 -20 39 -27 46
-14 57 -32 35 -54 -17 -17 -43 -13 -82 12 -22 14 -23 13 -20 -8 2 -15 17 -30
41 -43 22 -12 37 -27 37 -38 0 -23 -6 -23 -68 7 -29 14 -56 25 -61 25 -21 0
-21 23 -1 78 12 31 32 77 46 101 l24 43 -86 107 c-48 58 -157 178 -243 266
-86 89 -187 197 -226 240 -63 72 -230 256 -327 360 -21 22 -38 43 -38 48 0 4
-1215 7 -2700 7 l-2700 0 0 -5120z m5238 4301 c28 -17 9 -46 -37 -56 l-43 -9
6 -47 c8 -59 -2 -129 -19 -129 -16 0 -25 45 -25 121 l0 58 -37 3 c-33 3 -38 7
-41 30 -3 23 1 27 30 31 63 8 153 7 166 -2z m264 -13 c42 -35 48 -128 7 -128
-28 0 -33 -22 -15 -65 20 -47 20 -45 -3 -45 -12 0 -31 17 -48 43 -16 23 -35
42 -43 42 -11 0 -15 -11 -14 -42 1 -45 -5 -50 -37 -33 -23 13 -25 50 -7 163
l11 77 67 0 c38 0 73 -5 82 -12z m-725 -38 c18 -11 35 -31 39 -45 7 -30 -10
-76 -38 -102 -20 -18 -20 -18 13 -23 23 -3 35 -11 37 -24 6 -27 -6 -33 -80
-41 -63 -6 -68 -5 -68 12 0 11 20 46 45 77 50 64 54 80 26 95 -15 8 -24 4 -45
-20 -30 -34 -46 -31 -46 10 0 33 41 74 80 80 3 1 20 -8 37 -19z m1021 -94 c35
-109 36 -156 6 -156 -8 0 -24 15 -35 34 -20 34 -42 46 -91 46 -21 0 -29 -6
-34 -26 -8 -31 -38 -29 -42 5 -6 37 125 217 151 208 6 -2 26 -52 45 -111z
m304 21 c43 -23 68 -69 68 -122 0 -52 -14 -71 -64 -90 -40 -16 -48 -16 -98 -1
-29 8 -61 21 -72 29 -18 13 -18 15 3 77 12 34 31 80 42 102 19 37 22 39 52 33
18 -4 49 -16 69 -28z m-1702 -54 c65 -174 53 -202 -58 -132 -25 16 -49 29 -53
29 -4 0 -1 -21 7 -47 8 -25 14 -52 14 -60 0 -20 -48 -16 -54 5 -53 177 -59
212 -37 212 5 0 39 -20 76 -45 37 -25 70 -44 72 -41 3 3 -2 26 -11 52 -21 63
-21 84 3 84 15 0 25 -15 41 -57z m-319 -92 c31 -31 36 -59 18 -93 -10 -18 -8
-25 10 -39 12 -10 27 -19 34 -22 9 -3 9 -8 -2 -20 -19 -23 -36 -21 -65 8 -27
27 -66 34 -66 11 0 -8 5 -27 10 -42 16 -40 -5 -57 -29 -25 -18 23 -80 165 -82
185 -1 13 98 66 123 66 11 0 33 -13 49 -29z m-296 -181 c11 -9 34 -25 51 -35
17 -10 39 -30 48 -45 14 -25 14 -29 1 -40 -13 -10 -19 -10 -35 5 -16 14 -24
15 -54 5 -46 -15 -59 -33 -51 -69 7 -33 -8 -49 -30 -31 -10 8 -15 32 -15 70 0
31 -5 82 -10 111 -9 47 -8 56 7 66 18 14 41 4 88 -37z m-255 -76 c0 -23 -18
-55 -52 -90 -40 -42 -19 -54 32 -19 59 41 85 14 30 -32 -57 -48 -31 -77 35
-39 81 48 107 19 33 -35 -92 -67 -84 -68 -160 32 -38 49 -68 93 -68 98 0 5 8
12 18 15 9 4 40 24 67 46 56 44 65 47 65 24z m2100 -78 c250 -39 447 -96 700
-203 393 -166 707 -411 1034 -803 39 -47 76 -89 83 -95 10 -8 -3 -28 -54 -85
-36 -41 -69 -76 -72 -77 -3 -1 -27 26 -52 60 -122 164 -339 390 -504 523 -69
56 -245 172 -335 221 -200 109 -519 215 -801 265 -105 19 -160 22 -354 22
-328 0 -530 -35 -834 -144 -261 -94 -387 -162 -621 -335 -174 -130 -214 -167
-378 -352 -165 -188 -222 -264 -314 -425 -178 -312 -252 -533 -313 -938 -23
-150 -20 -451 5 -624 31 -209 127 -500 236 -718 142 -282 410 -618 681 -851
711 -611 1632 -749 2522 -378 305 127 623 362 861 636 243 280 436 599 520
860 52 165 98 372 111 505 16 171 6 497 -21 660 -21 126 -75 347 -112 453
l-20 57 56 61 c31 33 56 64 56 70 0 25 20 3 43 -48 70 -159 136 -405 162 -607
23 -179 38 -458 31 -581 -6 -121 -64 -454 -95 -550 -93 -288 -240 -579 -400
-790 -88 -117 -239 -291 -307 -355 -244 -229 -393 -334 -670 -473 -366 -183
-607 -249 -1009 -278 -282 -19 -617 12 -860 82 -266 76 -466 159 -625 259 -46
29 -163 113 -260 185 -295 223 -519 468 -710 776 -194 312 -308 614 -362 959
-19 123 -23 183 -23 400 0 295 19 456 85 716 48 191 94 314 181 486 148 291
352 559 607 794 318 293 698 501 1102 604 69 17 319 63 400 74 83 10 529 -3
630 -18z m3006 -51 c-26 -251 -56 -609 -56 -662 0 -35 -4 -63 -9 -63 -4 0 -28
17 -52 38 -24 21 -69 59 -100 85 l-57 48 -100 -123 c-231 -282 -381 -467 -437
-540 -103 -132 -217 -271 -266 -323 -25 -27 -84 -99 -129 -160 -82 -108 -333
-406 -401 -475 -73 -76 -67 -74 -150 -37 -94 43 -236 90 -248 83 -5 -3 -19
-27 -31 -53 -34 -73 -127 -212 -179 -268 -25 -28 -63 -70 -84 -95 l-37 -45 5
65 c6 69 8 81 18 120 3 14 8 71 10 128 5 102 5 103 46 155 103 133 291 347
305 347 13 0 174 -89 218 -121 35 -24 35 -25 53 11 19 37 224 295 349 440 50
58 111 130 136 160 25 30 85 103 135 161 49 59 124 146 165 195 82 96 259 310
322 388 22 27 48 67 59 88 l19 38 -22 0 c-37 0 -247 112 -255 136 -2 6 18 19
44 29 54 20 210 90 383 171 151 71 321 143 339 144 11 0 12 -13 7 -65z m-1405
-111 c34 -17 68 -82 69 -128 0 -60 -68 -126 -132 -126 -27 0 -73 28 -93 57
-21 30 -27 93 -12 133 14 41 68 80 109 80 16 0 43 -7 59 -16z m-3957 -45 c25
-28 46 -55 46 -60 0 -16 18 -10 49 17 33 28 61 26 60 -3 0 -19 -73 -83 -93
-82 -9 0 -84 84 -124 141 -13 18 -9 38 8 38 4 0 29 -23 54 -51z m-756 -131
c27 -27 7 -78 -30 -78 -28 0 -43 48 -22 71 20 22 35 24 52 7z m2972 2 c166
-17 291 -41 415 -81 157 -50 375 -144 468 -203 74 -46 122 -96 98 -104 -16 -5
9 -37 122 -160 139 -150 253 -318 352 -517 94 -188 101 -220 60 -270 -13 -16
-26 -27 -28 -25 -2 3 -14 32 -26 65 -13 33 -34 88 -47 122 -137 359 -490 769
-817 947 -81 44 -311 130 -331 123 -5 -2 35 -39 90 -84 227 -184 388 -390 512
-653 100 -212 118 -286 77 -320 -18 -15 -34 9 -80 125 -91 225 -158 346 -273
492 -110 138 -257 281 -362 350 -180 119 -230 144 -217 108 4 -8 40 -66 81
-129 134 -203 237 -473 310 -817 34 -156 47 -302 53 -564 5 -230 -2 -297 -34
-309 -17 -7 -63 18 -63 34 0 10 32 22 51 18 9 -2 13 6 12 22 -45 704 -150
1149 -359 1520 -98 174 -204 295 -204 233 0 -10 7 -81 15 -158 8 -77 15 -172
15 -211 0 -62 -3 -72 -19 -77 -38 -10 -45 8 -58 140 -7 70 -16 174 -19 231 -5
76 -10 102 -21 102 -20 0 -122 -108 -171 -181 -24 -35 -64 -100 -90 -144 -39
-67 -52 -81 -76 -83 -16 -2 -33 1 -38 6 -17 17 104 239 178 326 19 22 34 44
34 49 0 29 -218 -38 -388 -118 -64 -31 -125 -57 -137 -59 -12 -2 -54 -21 -95
-41 -44 -22 -76 -33 -82 -27 -13 13 44 65 121 111 64 37 77 43 134 55 15 4 27
10 27 14 0 10 -121 -3 -170 -18 -65 -19 -78 -10 -25 17 106 55 315 113 494
138 116 16 380 18 511 5z m-2387 -71 c94 -49 112 -165 34 -223 -64 -47 -137
-39 -187 22 -34 42 -41 102 -16 151 27 51 116 77 169 50z m4447 -24 c33 -17
60 -62 60 -97 -1 -47 -37 -106 -79 -127 -73 -38 -133 -19 -171 52 l-24 46 20
48 c34 82 119 117 194 78z m-5311 -121 c128 -42 234 -140 282 -261 21 -50 24
-75 24 -178 -1 -117 -1 -122 -37 -197 -88 -187 -236 -276 -443 -266 -80 4 -99
9 -165 42 -131 66 -220 176 -256 316 -27 106 -7 236 54 356 39 76 166 175 262
205 14 4 65 8 113 8 69 1 104 -4 166 -25z m690 -99 c69 -35 104 -111 76 -164
-60 -118 -255 -74 -255 57 0 94 95 151 179 107z m1477 -70 c61 -27 66 -44 17
-59 -43 -12 -152 36 -133 58 6 8 21 17 33 19 12 2 23 5 24 6 1 0 28 -10 59
-24z m-250 -16 c9 -16 -10 -26 -89 -43 -88 -20 -137 -21 -137 -2 0 13 54 39
105 49 41 9 114 7 121 -4z m400 -63 c17 -13 17 -17 6 -37 -14 -21 -13 -22 30
-16 23 3 60 9 80 13 32 5 39 4 44 -12 18 -58 36 -65 60 -25 18 31 20 31 100
31 63 0 85 -4 95 -16 11 -13 30 -15 104 -13 84 4 91 3 99 -17 9 -19 20 -22 90
-27 63 -3 85 -1 98 10 28 25 130 13 211 -24 68 -32 80 -50 51 -74 -12 -10 -22
-10 -48 -1 -46 17 -56 15 -56 -11 0 -32 -21 -59 -83 -101 -35 -24 -71 -40
-103 -44 l-49 -7 -6 -55 c-4 -33 -21 -83 -43 -124 l-35 -70 -15 35 c-20 49
-29 105 -22 135 4 15 32 53 62 84 30 32 51 60 47 63 -5 3 -28 6 -51 5 -36 0
-47 -5 -69 -34 -25 -34 -26 -34 -104 -34 -96 0 -113 -6 -178 -67 -63 -59 -58
-73 29 -85 34 -4 67 -11 72 -14 13 -8 3 -106 -14 -138 -25 -48 -75 -100 -144
-152 -41 -30 -74 -59 -74 -64 0 -5 9 -24 20 -42 11 -18 20 -39 20 -46 0 -11
-56 -52 -72 -52 -5 0 -8 21 -8 46 0 58 -14 84 -45 84 -15 0 -25 6 -25 14 0 8
-4 18 -10 21 -12 7 -60 -17 -83 -43 -18 -19 -18 -20 5 -36 12 -9 30 -16 40
-16 23 0 23 -9 -3 -36 l-22 -23 32 -42 c21 -30 31 -54 31 -78 -1 -47 -33 -117
-73 -159 -31 -33 -114 -82 -138 -82 -23 0 -81 -34 -96 -56 -14 -21 -12 -26 25
-81 46 -69 53 -92 41 -137 -9 -34 -45 -66 -72 -66 -8 0 -27 16 -41 35 -52 67
-86 67 -86 -1 0 -16 -5 -35 -12 -42 -9 -9 -6 -12 13 -12 20 0 33 -12 62 -62
64 -107 45 -133 -27 -39 -60 78 -67 98 -73 218 -7 125 -12 135 -51 106 l-30
-22 -6 22 c-3 12 -6 36 -6 54 0 40 -25 66 -54 57 -75 -22 -174 -136 -202 -232
-21 -74 -44 -122 -59 -122 -16 0 -59 82 -79 149 -9 30 -16 88 -16 128 0 40 -3
73 -8 73 -4 0 -18 -7 -30 -16 -25 -17 -23 -19 -38 51 -9 40 -10 40 -64 47 -29
3 -59 13 -65 21 -5 7 -28 17 -50 21 -67 12 -74 16 -105 62 -17 24 -37 44 -45
44 -36 0 -23 -97 20 -154 14 -18 18 -19 52 -7 36 13 37 13 70 -23 18 -19 33
-40 33 -44 0 -5 -14 -28 -30 -51 -34 -46 -125 -110 -197 -137 -44 -17 -46 -17
-59 1 -23 31 -106 297 -106 336 1 19 20 89 44 155 41 114 45 120 78 130 30 10
35 16 34 40 -1 16 -5 38 -8 49 -14 41 282 488 416 629 l49 51 -4 -32 c-4 -39
6 -41 60 -13 53 27 231 70 292 70 49 0 51 2 70 38 19 37 58 72 81 72 31 0 -12
-93 -65 -139 -45 -39 -37 -53 13 -25 25 14 46 38 65 75 15 30 36 62 46 73 19
19 272 94 322 95 14 1 34 -5 45 -13z m-576 -24 c0 -5 -14 -21 -31 -38 -17 -16
-39 -44 -51 -61 -21 -35 -48 -42 -68 -18 -26 31 20 83 99 111 43 16 51 17 51
6z m-1139 -130 c-11 -36 -28 -69 -117 -227 -148 -262 -260 -616 -316 -1000
-20 -140 -17 -595 6 -769 36 -281 145 -632 276 -895 105 -210 193 -346 347
-539 245 -306 446 -488 792 -719 68 -46 120 -83 115 -83 -6 0 -41 16 -79 36
-38 20 -79 40 -92 45 -39 15 -17 -7 35 -36 45 -24 80 -61 68 -72 -17 -17 -306
155 -433 258 -390 316 -646 627 -843 1023 -213 431 -309 882 -297 1403 5 271
24 421 78 641 78 315 152 505 296 757 91 158 126 205 154 205 15 0 16 -5 10
-28z m5912 -72 c156 -48 277 -194 302 -365 4 -22 -1 -74 -9 -116 -57 -297
-337 -454 -586 -331 -74 37 -180 142 -213 213 -36 77 -51 181 -38 255 49 263
298 420 544 344z m-3377 -256 c12 -30 16 -115 21 -465 l6 -429 23 0 c12 0 24
-6 27 -12 7 -20 -11 -58 -27 -58 -14 0 -16 -29 -30 -447 l-5 -142 37 -6 c20
-4 41 -8 46 -9 4 -1 -16 -16 -44 -34 -29 -18 -56 -29 -61 -25 -14 15 -21 110
-28 388 -4 154 -8 281 -9 283 -1 1 -12 2 -24 2 -12 0 -29 6 -37 13 -13 10 -72
11 -291 3 -271 -9 -515 -2 -505 14 3 5 34 12 69 15 l64 7 6 37 c13 77 40 81
41 6 l0 -43 310 5 c171 3 321 6 335 7 l25 1 0 440 c0 242 4 450 8 463 12 32
26 27 43 -14z m1824 -98 c0 -15 -24 11 -44 46 l-19 33 31 -35 c17 -19 31 -39
32 -44z m-2169 23 c6 -12 8 -43 5 -72 -3 -29 -6 -65 -8 -82 -3 -25 2 -32 30
-45 36 -17 31 -30 -14 -44 -19 -6 -22 -16 -26 -82 -6 -88 -21 -110 -111 -155
-32 -16 -67 -39 -78 -50 -20 -20 -22 -20 -37 -5 -23 23 -10 41 78 102 41 28
80 60 88 72 27 41 50 173 47 280 -2 102 4 121 26 81z m3003 -169 c13 -25 42
-99 65 -165 124 -354 129 -375 161 -638 23 -189 28 -536 10 -697 -57 -502
-333 -1102 -719 -1560 -138 -164 -319 -324 -526 -464 -149 -102 -449 -248
-532 -261 -44 -6 -47 -8 92 56 45 20 87 45 95 55 11 15 11 16 0 7 -8 -8 -18
-9 -24 -4 -7 6 -26 2 -50 -10 -59 -29 -53 -17 12 21 285 171 556 372 700 520
92 93 288 334 344 420 298 464 451 849 503 1270 29 238 18 559 -29 853 -23
140 -99 422 -145 536 -43 106 -72 206 -63 215 6 7 73 -90 106 -154z m-6423 89
c99 -50 103 -218 7 -277 -71 -44 -157 -21 -209 57 -26 40 -30 53 -27 97 10
116 123 177 229 123z m4979 -55 c12 -12 11 -14 -12 -14 -15 0 -30 -5 -34 -11
-4 -8 0 -9 15 -4 12 3 21 2 21 -4 0 -5 -8 -12 -17 -15 -20 -5 104 1 211 10 55
5 68 4 64 -7 -6 -17 -61 -28 -144 -28 -48 -1 -65 -5 -79 -21 -21 -23 -101 -28
-138 -8 -12 6 -42 12 -66 12 -55 1 -66 22 -16 32 21 4 56 23 82 45 47 41 79
45 113 13z m-372 -4 c44 -27 72 -76 72 -127 0 -35 -7 -50 -36 -83 -69 -76
-139 -76 -209 1 -56 62 -46 131 30 198 43 37 93 41 143 11z m-538 -60 c18 -18
19 -23 7 -53 -11 -25 -20 -33 -48 -37 -19 -3 -34 -11 -34 -17 0 -7 -4 -13 -10
-13 -5 0 -10 18 -12 39 -1 22 -3 43 -4 48 -4 22 3 34 24 43 35 14 56 11 77
-10z m-3667 -74 c51 -21 70 -58 65 -124 -4 -47 -10 -60 -37 -84 -25 -22 -41
-28 -77 -28 -39 0 -51 5 -80 34 -29 29 -34 41 -34 80 0 60 23 104 63 121 41
18 60 18 100 1z m4479 -13 c46 -50 62 -91 49 -133 -13 -44 -48 -81 -56 -59
-26 73 -44 219 -27 219 5 0 20 -12 34 -27z m-221 -560 c1 -164 0 -327 -1 -363
-1 -36 -4 -352 -6 -702 -4 -563 -7 -638 -20 -638 -11 0 -14 6 -9 23 5 17 4 19
-4 7 -10 -13 -11 -13 -12 0 0 10 -3 9 -10 -5 -8 -16 -20 -20 -59 -20 -50 0
-56 3 -42 21 4 5 0 3 -8 -6 -15 -15 -73 -22 -64 -8 3 4 -2 8 -10 8 -9 0 -17
-8 -18 -17 -7 -62 -14 320 -10 557 3 227 7 292 19 317 8 18 19 30 24 27 11 -7
135 120 155 158 13 24 12 27 -1 22 -8 -4 -15 -10 -15 -14 0 -4 -42 -40 -92
-81 -51 -41 -128 -109 -170 -152 -43 -42 -78 -70 -78 -62 0 8 14 30 31 48 l31
32 -26 3 c-30 4 -32 16 -11 86 8 27 15 77 16 110 0 55 15 159 18 129 2 -19 21
-16 21 3 0 8 5 12 10 9 6 -3 15 6 21 22 5 15 14 30 18 33 11 7 34 516 29 640
l-3 94 30 7 c17 4 78 7 137 8 l107 1 2 -297z m-4996 238 c166 -27 329 -68 400
-101 219 -104 336 -248 400 -494 28 -110 35 -246 12 -246 -16 0 -79 65 -179
185 -184 219 -498 482 -498 416 0 -20 65 -90 201 -215 97 -89 181 -178 248
-263 56 -70 115 -145 132 -166 17 -21 29 -41 26 -43 -14 -15 -149 -22 -225
-13 -272 33 -490 236 -581 544 -25 83 -71 332 -71 381 0 19 3 34 8 34 4 0 61
-9 127 -19z m8168 -56 c-4 -89 -25 -208 -54 -307 -115 -391 -365 -599 -703
-586 -52 1 -97 6 -101 10 -24 24 204 295 464 553 67 66 121 123 121 127 0 16
-37 7 -75 -19 -131 -88 -367 -312 -535 -508 -24 -27 -51 -56 -62 -63 -27 -20
-33 6 -19 81 58 296 91 374 220 511 72 76 119 107 223 150 107 45 393 105 483
102 l40 -1 -2 -50z m-1976 -180 c33 -136 36 -164 37 -297 1 -141 2 -147 23
-157 30 -14 55 -65 51 -104 -2 -23 -12 -38 -37 -54 l-34 -23 57 0 c41 0 56 -4
56 -14 0 -24 -27 -38 -62 -31 l-34 7 -23 -159 c-25 -181 -54 -334 -82 -445
-24 -95 -24 -98 1 -98 11 0 20 -7 20 -15 0 -16 -30 -35 -57 -35 -13 0 -33 -30
-71 -109 -53 -107 -121 -203 -122 -170 0 8 17 74 39 145 21 71 38 130 37 131
-7 8 -159 1 -188 -9 -30 -10 -38 -19 -48 -53 -46 -154 -189 -449 -268 -554
-89 -116 -247 -294 -282 -316 -20 -13 -29 -26 -26 -38 3 -14 0 -16 -17 -11
-20 6 -20 5 -8 -10 12 -14 11 -18 -5 -31 -60 -44 -232 -137 -309 -167 -160
-62 -178 -68 -340 -104 -134 -30 -190 -37 -340 -44 -424 -18 -756 41 -1048
187 -37 18 -65 38 -62 43 4 6 13 7 23 1 28 -14 102 -22 102 -11 0 10 38 -3
177 -63 45 -20 102 -41 125 -47 24 -6 51 -13 61 -16 9 -3 17 -1 17 5 0 6 -6
11 -14 11 -19 0 -200 173 -236 225 -33 49 -44 84 -31 104 7 11 36 -13 128
-105 180 -182 290 -256 402 -271 45 -6 46 -6 28 14 -9 11 -17 23 -17 27 0 4
-22 44 -49 89 -48 79 -99 194 -135 305 -18 53 -16 135 3 147 5 3 26 -41 46
-98 55 -151 136 -314 197 -394 54 -72 124 -140 134 -130 3 3 12 40 20 83 12
59 17 184 21 489 3 226 9 420 14 433 13 34 46 28 55 -10 10 -48 7 -544 -5
-673 -6 -60 -16 -149 -23 -197 -6 -48 -9 -90 -6 -94 10 -10 72 14 122 48 57
37 152 160 212 273 72 135 167 542 194 830 14 159 15 155 -18 155 -16 0 -36 6
-46 13 -17 13 -16 14 14 27 26 11 118 16 125 7 2 -1 -1 -85 -6 -187 -8 -196
-27 -321 -79 -535 -62 -251 -142 -424 -248 -537 -58 -61 -62 -68 -40 -68 31 0
171 67 246 118 79 54 213 197 301 319 115 162 215 395 271 633 39 165 40 167
84 128 l27 -23 -20 -103 c-23 -118 -105 -347 -171 -477 -51 -99 -152 -246
-198 -287 -16 -14 -36 -34 -43 -44 -8 -11 -58 -59 -111 -108 -54 -49 -98 -92
-98 -96 0 -15 81 11 185 59 159 75 396 262 518 410 75 89 168 224 201 290 66
130 156 378 156 430 l0 26 -115 -3 c-63 -2 -122 1 -131 6 -13 7 -23 3 -41 -19
-33 -39 -85 -55 -116 -35 -87 57 -90 152 -5 178 49 14 79 2 110 -48 l23 -36
142 -2 141 -1 20 40 c35 69 54 204 59 422 3 111 3 213 -1 226 -5 23 -9 24
-148 31 -180 8 -210 13 -206 35 3 14 24 16 182 14 l178 -3 -7 140 c-7 137 -7
140 14 140 17 0 20 6 19 34 -1 37 29 83 136 211 27 33 51 62 53 64 2 2 6 1 9
-2 12 -12 -17 -64 -82 -143 -65 -80 -92 -138 -74 -159 5 -6 11 -76 12 -156 l3
-144 164 -8 c183 -9 198 -5 155 46 -31 36 -31 67 1 97 17 16 22 27 16 39 -5 9
-14 70 -20 136 -19 194 -31 275 -52 362 -22 89 -19 103 25 151 l21 24 3 -39
c2 -21 19 -105 39 -188z m-1752 39 c33 -16 87 -81 100 -122 11 -38 -20 -106
-63 -135 -77 -52 -145 -44 -208 25 -34 39 -36 44 -31 91 8 61 43 118 88 140
43 21 72 21 114 1z m-2715 -46 c27 -106 64 -215 82 -240 17 -25 25 -28 78 -28
32 0 61 -4 64 -9 10 -16 -25 -126 -56 -176 -18 -27 -47 -79 -66 -115 -30 -58
-33 -71 -28 -122 4 -41 18 -82 51 -143 50 -96 53 -120 25 -184 -24 -52 -25
-66 -4 -122 15 -42 26 -245 15 -278 -5 -17 -102 246 -148 404 -63 218 -77 314
-77 560 -1 136 4 251 12 300 19 118 34 195 38 195 2 0 8 -19 14 -42z m1416
-30 c-8 -46 -13 -58 -27 -58 -13 0 -11 74 3 88 22 22 31 12 24 -30z m224 -82
c0 -36 6 -55 25 -77 30 -36 42 -93 25 -114 -14 -17 -56 -20 -65 -5 -3 6 -16
10 -27 10 l-22 0 22 20 c28 26 29 73 2 107 -26 33 -25 73 1 107 27 35 39 21
39 -48z m-1137 8 c6 -16 10 -140 10 -277 l1 -247 326 0 c180 0 334 -2 343 -6
49 -18 -12 -34 -135 -34 -70 0 -78 -2 -78 -19 0 -14 -6 -19 -20 -18 -12 1 -20
8 -20 19 0 17 -15 18 -211 18 l-212 0 7 -102 c6 -88 16 -168 43 -344 6 -36
-22 -68 -38 -43 -24 37 -41 155 -57 382 l-7 109 -172 -1 c-158 -2 -204 5 -173
24 6 4 86 10 178 15 92 5 167 9 168 9 5 3 15 322 14 424 0 98 2 128 12 125 6
-2 16 -18 21 -34z m1703 -83 c72 -33 97 -133 51 -202 -73 -110 -232 -76 -254
54 -8 52 35 123 90 148 52 23 62 23 113 0z m-1380 -165 c9 -37 1 -61 -21 -61
-24 0 -32 34 -15 64 14 28 28 26 36 -3z m744 -19 c0 -33 -33 -155 -54 -199
-16 -34 -22 -38 -56 -38 -21 0 -45 3 -54 6 -31 12 -45 124 -15 124 5 0 41 29
80 65 75 69 99 79 99 42z m2126 -45 c-4 -3 -12 0 -18 6 -9 9 -9 12 0 12 7 0
13 8 13 18 1 10 3 8 6 -6 3 -13 2 -26 -1 -30z m-2565 4 c82 -64 189 -183 189
-210 0 -33 25 -48 123 -76 71 -21 96 -34 85 -45 -10 -10 -185 28 -214 46 -48
30 -105 96 -178 208 -36 56 -66 104 -66 106 0 12 21 2 61 -29z m1654 -296 l0
-325 -27 -45 c-41 -69 -163 -187 -281 -272 -59 -43 -112 -78 -117 -78 -6 0 -4
13 5 30 9 17 21 30 29 30 7 0 18 12 24 26 7 14 8 23 2 19 -12 -8 -13 35 -1 54
5 8 3 27 -6 49 -13 31 -13 34 1 29 10 -4 13 -1 9 8 -3 8 -8 13 -12 11 -9 -6
-13 71 -6 119 3 25 17 53 37 75 56 63 58 77 58 344 0 185 3 245 12 248 7 3 71
4 143 4 l130 -1 0 -325z m829 268 c1 -29 6 -62 11 -72 5 -12 5 -17 -1 -13 -6
3 -10 -53 -12 -146 -2 -174 -18 -400 -35 -501 -12 -67 -13 -68 -51 -81 l-39
-14 8 87 c5 48 9 222 10 387 1 268 3 304 19 337 15 31 73 81 84 72 2 -1 5 -26
6 -56z m-1909 -38 l29 -30 -23 -22 c-21 -19 -24 -19 -33 -5 -14 25 -35 9 -43
-31 -8 -43 -21 -62 -42 -62 -11 0 -14 7 -9 28 11 46 66 152 80 152 7 0 25 -14
41 -30z m1931 -7 c-11 -11 -17 4 -9 23 7 18 8 18 11 1 2 -10 1 -21 -2 -24z
m-1755 -188 c3 -38 4 -72 3 -73 -6 -9 -42 11 -79 42 l-40 34 18 36 c16 34 20
37 55 34 l37 -3 6 -70z m401 60 c11 -4 13 -88 13 -449 l-1 -443 -81 -87 c-45
-48 -110 -113 -145 -145 l-63 -58 3 581 c1 320 4 587 7 594 3 9 38 12 129 12
68 0 130 -2 138 -5z m-3102 -131 c50 -60 136 -211 126 -221 -12 -13 -56 41
-115 141 -33 56 -63 109 -67 119 -12 32 11 16 56 -39z m6245 -21 c-33 -80
-105 -171 -105 -133 0 22 102 170 117 170 2 0 -4 -17 -12 -37z m-4166 -93
c126 -64 132 -248 12 -310 -77 -39 -174 -16 -222 52 -30 41 -37 128 -15 180
35 83 143 120 225 78z m-899 -80 c37 -130 48 -290 20 -290 -17 0 -59 73 -81
138 -20 61 -21 66 -5 99 9 18 16 51 16 72 0 21 3 41 7 45 10 10 31 -21 43 -64z
m1475 -122 c-3 -79 -8 -313 -11 -520 l-6 -376 -40 -44 c-22 -24 -67 -78 -101
-121 -33 -42 -65 -76 -71 -74 -5 2 -19 15 -29 29 -29 38 -33 150 -29 741 l4
507 144 0 145 0 -6 -142z m-3024 42 c51 -14 124 -82 144 -133 9 -25 15 -63 13
-92 l-3 -49 -70 -40 c-59 -34 -78 -41 -123 -40 -28 1 -58 7 -66 13 -10 8 -16
9 -21 1 -9 -15 39 -30 97 -30 39 0 65 8 105 31 54 29 54 30 51 8 -4 -33 -86
-72 -157 -77 -115 -7 -202 72 -209 194 -7 112 33 182 119 209 54 17 74 18 120
5z m7148 -19 c26 -14 53 -39 72 -69 27 -41 30 -54 27 -104 -5 -70 -38 -123
-104 -169 -60 -41 -120 -48 -188 -22 -55 20 -97 66 -79 84 9 9 20 5 43 -14 30
-25 86 -47 123 -47 25 0 68 24 92 50 l20 22 -40 -21 c-85 -45 -161 -35 -197
25 -21 36 -32 41 -44 22 -5 -7 -11 -5 -21 7 -9 14 -13 15 -13 4 0 -12 -2 -12
-10 1 -14 22 -12 96 4 133 18 43 75 95 122 113 52 19 139 12 193 -15z m-5130
-139 c25 -20 42 -46 56 -85 19 -56 19 -56 -1 -104 -26 -62 -70 -93 -135 -93
-65 0 -92 12 -125 55 -56 74 -28 192 59 246 43 27 98 20 146 -19z m-324 -89
c5 -68 4 -103 -3 -103 -17 0 -22 28 -22 128 0 125 16 109 25 -25z m2264 5 c-1
-51 -1 -51 -10 -20 -6 19 -14 30 -20 26 -6 -3 -3 5 6 20 10 14 19 26 21 26 2
0 4 -24 3 -52z m2837 -39 c13 -22 -54 -69 -221 -157 -250 -130 -324 -154 -254
-81 20 21 107 75 216 132 230 123 244 129 259 106z m-6523 -15 c18 -9 84 -47
147 -84 63 -37 136 -79 162 -94 56 -31 78 -52 78 -73 0 -29 -57 -6 -238 98
-173 98 -237 143 -226 161 8 13 42 9 77 -8z m3675 -19 c9 16 11 -9 11 -120 -1
-77 -3 -132 -6 -122 -2 9 -12 17 -21 18 -14 0 -13 2 3 9 11 5 15 9 8 9 -6 1
-18 4 -27 7 -11 4 -16 1 -16 -10 0 -9 -4 -16 -10 -16 -5 0 -7 14 -4 33 3 17 2
28 -3 22 -11 -14 -60 -18 -68 -5 -5 9 22 15 48 11 4 0 7 4 7 9 0 6 -10 8 -24
4 -18 -4 -25 -1 -30 18 -7 22 -8 22 -15 4 -7 -19 -8 -19 -15 -1 -4 10 -2 21 5
25 8 6 8 9 0 14 -8 5 -7 12 4 22 8 9 19 12 25 9 6 -4 13 7 16 24 5 24 10 29
19 21 10 -8 15 -6 18 7 4 14 5 13 6 -4 0 -13 6 -23 12 -23 7 0 9 10 7 25 -5
26 6 35 15 13 3 -7 6 -4 7 7 2 17 3 16 9 -5 7 -24 7 -24 19 -5z m692 -40 c0
-22 -33 -35 -89 -35 -51 0 -67 10 -57 35 8 22 146 21 146 0z m-2088 -410 c-3
-365 -9 -505 -22 -505 -4 0 -5 54 -2 120 4 106 3 120 -11 115 -8 -4 -18 -2
-21 3 -3 6 -14 8 -25 5 -13 -3 -17 -11 -14 -26 3 -15 -1 -12 -11 8 -12 25 -22
21 -17 -8 1 -4 -10 -12 -25 -17 -14 -6 -23 -14 -20 -18 2 -4 -4 -8 -14 -8 -10
0 -17 3 -15 7 3 3 -5 15 -17 25 -20 19 -21 19 -13 -4 6 -20 4 -23 -12 -20 -17
3 -19 20 -25 218 -3 118 -8 270 -11 338 l-4 123 141 -3 141 -3 -3 -350z m1312
256 c3 -5 -1 -11 -9 -15 -8 -3 -17 0 -21 6 -4 7 -3 8 4 4 7 -4 12 -2 12 3 0
13 7 14 14 2z m1024 -63 c15 -15 16 -55 2 -63 -6 -4 -8 -16 -4 -28 6 -21 6
-21 -13 -4 -30 26 -53 22 -53 -10 0 -47 -14 -14 -20 47 -4 37 -2 61 5 64 21 9
72 5 83 -6z m-5111 -52 c-4 -9 -16 -16 -27 -16 -15 0 -20 7 -20 24 0 13 6 26
13 29 18 7 41 -19 34 -37z m7373 -56 c0 -11 -7 -20 -15 -20 -8 0 -15 9 -15 20
0 11 7 20 15 20 8 0 15 -9 15 -20z m-6755 -35 c123 -33 271 -165 315 -283 98
-260 -23 -526 -277 -611 -74 -25 -210 -28 -290 -7 -126 34 -235 121 -293 235
-77 153 -79 296 -6 445 51 104 140 180 254 217 72 23 216 25 297 4z m1695 -1
l26 -5 -3 -137 c-4 -166 -12 -244 -23 -237 -5 3 -7 12 -3 20 3 8 0 15 -6 15
-6 0 -11 -11 -11 -25 0 -18 -4 -23 -16 -18 -8 3 -13 11 -10 18 3 8 -2 11 -15
8 -11 -3 -19 0 -19 6 0 7 -8 11 -17 9 -13 -2 -18 3 -17 20 1 29 -4 28 -16 -4
-6 -14 -15 -22 -20 -19 -6 4 -8 11 -5 16 4 5 1 10 -4 10 -6 1 -16 2 -21 3 -6
0 -15 7 -19 15 -6 9 -11 10 -15 2 -4 -6 -2 -11 3 -11 6 0 10 -4 9 -10 -2 -5
47 -57 107 -116 61 -58 101 -100 90 -93 -11 7 -54 46 -95 85 -41 40 -93 88
-115 108 l-40 36 -5 142 c-3 79 -2 148 3 155 5 7 25 14 45 16 39 5 170 -1 212
-9z m4720 5 c146 -23 257 -105 324 -240 92 -187 65 -396 -73 -550 -151 -169
-439 -195 -628 -56 -112 83 -171 204 -180 368 -5 81 -2 106 18 168 76 243 268
354 539 310z m657 -31 c39 -44 38 -65 -5 -108 -22 -22 -44 -40 -49 -40 -15 0
-63 73 -63 94 0 23 54 76 77 76 11 0 29 -10 40 -22z m-7854 -16 c15 -15 27
-35 27 -43 0 -15 -57 -89 -68 -89 -4 0 -22 19 -40 41 -32 37 -33 42 -22 70 23
55 63 63 103 21z m3477 -97 c-7 -9 -15 -13 -19 -10 -3 3 1 10 9 15 21 14 24
12 10 -5z m-576 -217 c-3 -4 -14 -8 -25 -8 -11 0 -18 4 -14 9 3 6 14 9 25 8
10 -1 16 -5 14 -9z m-139 -58 c3 -5 1 -10 -4 -10 -6 0 -11 5 -11 10 0 6 2 10
4 10 3 0 8 -4 11 -10z m59 -76 c5 -14 4 -15 -9 -4 -17 14 -19 20 -6 20 5 0 12
-7 15 -16z m-114 -112 c0 -19 -3 -16 -23 28 l-17 35 20 -24 c11 -13 20 -30 20
-39z m5133 -226 c25 -19 22 -56 -4 -56 -13 0 -18 4 -13 12 5 8 2 9 -9 5 -9 -3
-19 -2 -22 3 -4 6 0 10 7 11 10 0 11 2 0 6 -10 4 -10 8 -1 19 14 17 19 17 42
0z m-6443 -216 c13 0 32 -39 25 -50 -4 -6 -15 -4 -28 4 -19 13 -27 13 -54 1
-18 -8 -33 -16 -33 -19 0 -3 18 -10 41 -16 22 -6 49 -20 60 -31 23 -23 25 -71
4 -89 -22 -18 -140 -9 -162 13 -16 16 -15 17 17 18 102 2 115 4 115 19 0 8
-21 22 -49 32 -67 24 -83 40 -68 72 11 25 85 58 110 50 8 -2 18 -4 22 -4z
m243 -9 c38 -15 38 -35 0 -89 -19 -28 -32 -56 -28 -61 3 -6 22 -11 41 -11 40
0 44 -13 10 -35 -22 -15 -27 -15 -56 0 -44 23 -47 40 -16 102 15 31 24 58 21
61 -3 3 -24 1 -46 -5 -45 -12 -54 -5 -33 25 16 24 63 29 107 13z m-473 -15 c0
-10 -14 -16 -42 -18 -56 -4 -60 -31 -5 -38 21 -3 38 -8 37 -12 0 -5 0 -12 0
-18 0 -5 -18 -10 -40 -10 -36 0 -40 -2 -40 -25 0 -23 3 -25 51 -25 47 0 50 -2
47 -22 -3 -21 -9 -23 -70 -26 l-68 -3 0 106 0 105 65 0 c50 0 65 -3 65 -14z
m5088 0 c38 -20 57 -57 43 -84 -17 -33 -52 -52 -93 -52 -36 0 -38 -2 -38 -31
0 -26 -3 -30 -22 -27 -22 3 -23 8 -26 106 l-3 102 56 0 c31 0 68 -6 83 -14z
m256 -17 c31 -37 32 -44 6 -87 l-20 -33 20 -26 c11 -14 17 -29 14 -34 -12 -19
-43 -7 -68 26 -15 19 -36 35 -47 35 -15 0 -19 -7 -19 -35 0 -25 -4 -35 -15
-35 -21 0 -23 8 -28 123 l-5 97 68 0 c64 0 70 -2 94 -31z m245 17 c32 -17 51
-54 51 -101 0 -81 -110 -136 -167 -84 -14 13 -32 39 -39 57 -12 27 -12 37 0
65 27 66 95 94 155 63z m-5211 -158 c-2 -12 -9 -23 -15 -26 -19 -6 -29 28 -12
39 23 14 31 10 27 -13z m3490 -128 c-7 -11 -17 -20 -22 -20 -5 0 -1 9 9 20 10
11 20 20 22 20 2 0 -2 -9 -9 -20z m-3930 -345 l-3 -110 -184 -3 -184 -2 6
-137 c4 -75 7 -165 7 -200 l0 -63 149 0 148 0 6 -102 c3 -57 3 -106 1 -110 -3
-5 -74 -8 -159 -8 l-154 0 1 -215 1 -215 184 -2 184 -3 4 -107 5 -108 -299 0
-299 0 -6 23 c-6 24 -8 1461 -2 1468 2 2 138 4 300 4 l297 0 -3 -110z m2985
100 c115 -30 182 -81 223 -170 22 -47 24 -62 24 -242 0 -227 -2 -233 -109
-368 -39 -49 -111 -146 -158 -215 -48 -69 -102 -144 -120 -168 -18 -24 -33
-54 -33 -68 l0 -24 205 0 205 0 0 -115 0 -115 -321 2 -322 3 2 160 2 159 91
136 c50 74 136 197 190 272 136 190 138 193 138 358 0 153 -6 171 -65 190 -39
13 -84 3 -117 -27 -16 -14 -18 -33 -18 -150 l0 -133 -109 0 c-127 0 -121 -6
-120 120 0 110 14 211 35 255 58 123 217 182 377 140z m1015 -99 l3 -106 -116
0 -115 0 -2 -637 -3 -638 -107 -3 -108 -3 0 641 0 640 -114 0 -113 0 -6 68
c-4 37 -7 84 -7 104 0 46 -23 43 375 42 l310 -2 3 -106z m472 104 c130 -21
214 -85 242 -184 6 -24 12 -123 12 -241 1 -225 -5 -252 -78 -332 l-36 -40 27
-24 c53 -49 63 -91 73 -311 8 -180 19 -263 45 -330 6 -15 -5 -17 -107 -20 -62
-2 -114 -2 -116 -2 -7 3 -23 136 -37 304 -8 102 -17 197 -21 211 -9 44 -33 57
-115 65 l-76 6 -6 -38 c-4 -22 -7 -154 -7 -294 l0 -255 -105 -2 -105 -2 -2
447 c-1 246 -2 583 -3 750 l-1 302 175 0 c97 0 205 -5 241 -10z m751 4 l105
-7 18 -101 c9 -56 35 -202 56 -326 22 -124 46 -263 55 -310 8 -47 24 -150 34
-230 32 -231 69 -474 76 -491 5 -14 -8 -17 -102 -21 -64 -3 -111 -1 -114 4 -5
9 -23 111 -45 261 l-6 38 -131 -3 -131 -3 -25 -147 -25 -146 -93 -7 c-99 -8
-128 -3 -120 19 7 17 38 203 71 421 14 88 43 266 65 395 22 129 47 276 56 325
23 139 57 319 62 328 5 9 58 9 194 1z m881 -23 c66 -26 126 -81 159 -149 23
-45 24 -56 27 -322 2 -151 -1 -385 -6 -520 -10 -284 -15 -303 -106 -388 -80
-76 -119 -86 -357 -86 l-197 -1 -7 175 c-7 176 -4 1298 3 1314 3 4 100 6 216
4 188 -4 217 -7 268 -27z m656 22 l202 -6 0 -104 0 -103 -190 0 -190 0 0 -107
c0 -60 3 -152 7 -205 l6 -98 166 -2 166 -3 8 -98 c5 -54 6 -101 3 -104 -3 -4
-85 -6 -181 -5 l-175 2 -1 -83 c0 -45 -2 -93 -4 -107 -2 -14 -1 -76 2 -137 l6
-113 185 -2 185 -3 -2 -100 c-1 -55 -4 -102 -7 -104 -2 -3 -134 -4 -292 -4
l-287 0 -5 214 c-3 118 -4 454 -2 747 l2 532 98 0 c53 0 188 -3 300 -7z
m-7786 -265 c1 -145 2 -317 2 -383 1 -66 2 -234 4 -372 l2 -253 175 0 c132 0
177 -3 179 -12 3 -7 7 -57 10 -110 l6 -98 -300 0 c-165 0 -300 3 -301 8 0 4
-2 339 -4 745 l-5 737 115 0 115 0 2 -262z m1622 235 c17 -86 60 -328 95 -538
87 -522 145 -856 156 -902 5 -23 5 -23 -114 -23 l-119 0 -6 28 c-3 15 -12 72
-21 127 -8 55 -18 110 -20 123 -5 21 -9 22 -129 22 l-124 0 -10 -47 c-6 -27
-15 -84 -22 -128 -20 -140 -4 -125 -130 -125 -81 0 -110 3 -110 13 0 6 9 68
20 137 12 69 34 215 50 325 16 110 48 304 70 430 22 127 52 304 66 395 14 91
27 171 30 178 2 9 43 12 158 12 l154 0 6 -27z m826 -2 c58 -30 97 -66 123
-116 20 -37 22 -57 25 -262 3 -204 2 -224 -16 -260 -23 -43 -51 -76 -87 -99
-33 -22 -31 -31 9 -48 40 -16 70 -57 84 -111 6 -22 14 -128 17 -235 4 -107 13
-223 21 -258 8 -35 14 -65 14 -68 0 -2 -54 -4 -119 -4 -104 0 -120 2 -126 18
-4 9 -10 123 -14 253 -9 301 -13 309 -157 309 l-64 0 -1 -112 c-1 -62 -2 -117
-4 -123 -1 -5 -3 -85 -3 -177 l-2 -168 -116 0 -116 0 3 738 c1 405 4 741 7
745 2 5 110 7 240 5 226 -3 239 -4 282 -27z m530 -98 c23 -71 62 -184 87 -253
25 -69 70 -208 99 -310 46 -158 53 -175 48 -120 -4 36 -8 233 -9 438 l-3 372
112 0 113 0 6 -202 c9 -258 9 -538 0 -957 l-6 -332 -111 3 -110 3 -24 85 c-49
178 -104 370 -142 491 -59 186 -99 324 -120 409 l-19 75 0 -80 c-1 -44 4 -170
10 -280 9 -140 10 -275 3 -450 l-9 -250 -108 -3 -107 -3 0 746 1 745 123 0
124 0 42 -127z m998 -1584 c88 -10 142 -31 179 -71 66 -71 53 -182 -31 -255
-43 -38 -49 -40 -261 -66 -19 -2 -20 5 -23 207 l-2 208 27 -7 c15 -3 65 -11
111 -16z m-1521 -15 c40 -30 73 -82 73 -117 0 -40 -35 -94 -73 -114 -21 -10
-58 -17 -104 -17 l-73 -1 0 -57 0 -56 -42 5 c-24 3 -44 6 -44 7 -1 0 -4 86 -6
190 l-3 188 122 -4 c104 -3 127 -7 150 -24z m551 -6 c45 -28 62 -56 62 -106 0
-54 -11 -75 -55 -105 l-35 -24 40 -53 c51 -68 51 -80 2 -80 -35 0 -41 4 -78
58 -35 50 -44 57 -77 60 l-37 3 0 -55 0 -56 -34 0 c-31 0 -34 3 -40 38 -3 20
-6 107 -6 192 l0 155 113 -3 c90 -3 118 -8 145 -24z m486 -2 c65 -68 161 -303
143 -349 -4 -11 -18 -17 -36 -17 -26 0 -33 6 -50 45 l-20 45 -76 0 -76 0 -14
-34 c-11 -25 -22 -35 -46 -40 -48 -9 -69 -7 -64 7 21 67 83 228 112 295 34 76
38 82 66 82 21 0 39 -10 61 -34z m1203 -12 c-3 -20 -9 -39 -11 -42 -3 -3 -51
-7 -106 -10 -96 -4 -100 -6 -100 -28 0 -25 24 -31 135 -37 l50 -2 0 -35 0 -35
-84 -5 c-84 -5 -85 -5 -92 -34 -5 -17 -7 -31 -6 -33 2 -1 50 -6 107 -10 l105
-8 3 -37 3 -37 -160 0 -161 -1 0 157 c0 87 3 175 6 196 l7 37 155 0 155 0 -6
-36z m548 30 c8 -4 29 -26 45 -50 32 -45 39 -98 19 -136 -15 -28 -69 -48 -128
-48 l-50 0 -3 -47 c-3 -45 -5 -49 -38 -59 l-35 -12 -6 134 c-4 74 -10 150 -13
169 -4 20 -4 40 -1 45 7 11 183 14 210 4z m855 -17 c62 -32 93 -93 85 -165 -7
-72 -27 -106 -78 -137 -75 -43 -144 -29 -209 43 -65 72 -64 156 3 223 22 22
50 44 62 49 39 16 93 11 137 -13z m-451 -7 c48 -24 81 -64 81 -97 0 -15 -14
-39 -35 -60 l-34 -34 30 -50 c31 -50 33 -79 4 -79 -29 0 -52 19 -84 69 -53 82
-84 83 -102 4 -11 -47 -18 -59 -36 -61 -23 -3 -23 -2 -23 116 0 66 -3 140 -6
166 l-7 46 87 0 c67 0 96 -5 125 -20z m2295 -56 c9 -3 16 -14 16 -23 0 -16
-21 -18 -232 -24 -128 -4 -464 -7 -745 -7 -440 0 -513 2 -513 14 0 8 6 18 13
23 18 12 1431 29 1461 17z m-6387 -15 c82 -11 91 -14 79 -26 -8 -9 -1841 -17
-1862 -9 -7 3 -10 13 -7 25 l5 21 853 0 c560 0 880 -4 932 -11z"/>
<path d="M5394 9335 c-10 -24 4 -45 29 -45 33 0 62 23 54 44 -8 21 -75 22 -83
1z"/>
<path d="M5700 9265 c-11 -13 -9 -15 15 -15 16 0 25 5 23 12 -7 19 -24 20 -38
3z"/>
<path d="M6015 9257 c-26 -71 -34 -100 -30 -107 3 -5 21 -14 41 -20 67 -22
108 34 68 95 -19 29 -73 51 -79 32z"/>
<path d="M3986 9107 c-24 -17 -15 -67 12 -67 30 0 63 30 60 53 -4 27 -44 34
-72 14z"/>
<path d="M3745 8927 c-4 -9 -5 -23 -3 -32 3 -14 5 -14 23 -1 19 14 19 16 3 32
-16 16 -18 16 -23 1z"/>
<path d="M7280 6980 c-6 -11 -8 -20 -6 -20 3 0 10 9 16 20 6 11 8 20 6 20 -3
0 -10 -9 -16 -20z"/>
<path d="M1985 8206 c-187 -59 -298 -226 -282 -424 10 -127 108 -267 230 -326
179 -88 407 -4 502 184 100 197 52 391 -127 513 -88 61 -227 83 -323 53z m145
-115 c0 -38 0 -38 47 -45 56 -7 83 -29 83 -68 0 -24 -4 -28 -27 -28 -16 1 -39
7 -53 15 -49 28 -60 21 -60 -40 0 -48 -3 -55 -19 -55 -17 0 -20 8 -23 53 -3
51 -4 52 -32 50 -38 -3 -60 -25 -52 -51 9 -26 75 -58 145 -72 90 -17 134 -60
133 -132 -1 -71 -56 -128 -124 -128 -18 0 -18 -2 -2 -31 19 -38 9 -52 -37 -47
-33 3 -34 4 -31 41 3 28 0 38 -10 36 -7 -1 -28 -1 -46 0 -61 2 -132 97 -86
115 16 6 44 -5 83 -35 13 -11 33 -19 44 -19 18 0 19 5 13 46 -3 26 -6 57 -6
69 0 17 -12 26 -55 44 -30 13 -64 34 -75 48 -55 70 12 193 105 193 22 0 25 4
25 34 0 34 9 44 43 45 13 1 17 -7 17 -38z"/>
<path d="M2130 7715 c0 -36 2 -65 5 -65 14 0 55 25 59 37 10 24 -5 61 -30 77
-13 9 -26 16 -29 16 -3 0 -5 -29 -5 -65z"/>
<path d="M3364 7233 c-78 -45 -89 -63 -67 -113 9 -23 12 -49 8 -79 -8 -51 1
-61 56 -61 33 0 37 3 48 39 7 23 9 62 5 93 -5 41 -2 63 10 86 9 17 16 36 16
42 0 16 -42 12 -76 -7z"/>
<path d="M3542 7196 c-6 -13 -8 -27 -5 -30 14 -13 42 -5 48 14 13 42 -24 56
-43 16z"/>
<path d="M8545 7741 c-91 -22 -195 -112 -242 -209 -24 -50 -27 -69 -28 -152 0
-88 3 -101 33 -162 41 -83 138 -178 208 -202 57 -19 174 -20 226 -2 144 51
272 254 254 403 -12 104 -92 226 -182 279 -79 46 -187 64 -269 45z m123 -121
c2 -20 14 -29 55 -45 46 -18 52 -24 55 -52 4 -40 -29 -64 -56 -40 -9 8 -27 18
-39 21 -18 6 -23 3 -23 -10 0 -15 -3 -15 -21 5 -16 17 -28 21 -48 16 -25 -6
-51 -30 -51 -47 0 -19 50 -50 120 -73 99 -33 120 -55 120 -124 0 -45 -4 -57
-29 -82 -20 -20 -39 -29 -61 -29 -31 0 -32 -1 -28 -35 3 -27 0 -36 -14 -41
-27 -8 -38 4 -38 42 0 33 -1 34 -38 34 -45 0 -77 20 -86 55 -8 30 8 65 30 65
9 0 28 -13 44 -29 25 -24 36 -28 82 -27 48 1 53 3 62 29 15 42 -1 58 -89 87
-107 36 -135 62 -135 127 0 65 25 98 88 116 39 12 48 18 50 41 5 37 46 33 50
-4z"/>
<path d="M1484 7351 c-48 -29 -64 -59 -64 -117 0 -63 25 -99 79 -115 32 -10
44 -8 77 7 60 29 77 51 82 109 4 44 1 55 -23 83 -22 27 -75 52 -110 52 -5 0
-24 -9 -41 -19z m80 -27 c23 -9 20 -23 -4 -17 -19 5 -20 3 -9 -23 15 -38 19
-106 6 -121 -13 -18 -46 -16 -53 2 -4 8 -2 21 3 28 6 6 13 29 16 50 5 32 3 37
-14 37 -21 0 -25 20 -7 38 13 13 37 15 62 6z"/>
<path d="M6465 7270 c-32 -21 -23 -26 19 -10 14 5 26 14 26 20 0 15 -11 12
-45 -10z"/>
<path d="M6498 7233 c12 -2 32 -2 45 0 12 2 2 4 -23 4 -25 0 -35 -2 -22 -4z"/>
<path d="M5607 7243 c-4 -3 -7 -15 -7 -25 0 -22 51 -26 69 -5 20 25 -39 53
-62 30z"/>
<path d="M1890 7052 c0 -11 4 -23 8 -26 10 -6 9 30 -1 40 -4 4 -7 -2 -7 -14z"/>
<path d="M2005 7030 c-3 -5 -2 -10 4 -10 5 0 13 5 16 10 3 6 2 10 -4 10 -5 0
-13 -4 -16 -10z"/>
<path d="M6085 4950 c-4 -6 -16 -8 -28 -5 -20 5 -20 5 -3 -6 14 -9 21 -8 34 5
9 9 13 16 10 16 -4 0 -10 -5 -13 -10z"/>
<path d="M1350 6267 c0 -3 18 -32 39 -65 107 -160 300 -261 499 -262 66 0 96
12 55 23 -16 4 -16 5 -1 6 9 0 20 -3 23 -9 3 -5 11 -10 16 -10 6 0 3 7 -5 16
-9 8 -28 14 -44 13 -15 -2 -33 0 -39 4 -7 5 -21 4 -30 -1 -10 -5 -25 -7 -33
-5 -13 4 -13 3 0 -6 12 -9 11 -11 -7 -11 -13 0 -23 4 -23 10 0 5 -13 7 -32 3
-22 -4 -29 -3 -24 5 4 8 2 10 -8 6 -21 -8 -145 44 -186 78 -62 52 -118 107
-114 111 2 2 -16 25 -41 51 -25 27 -45 46 -45 43z"/>
<path d="M9223 6263 c-67 -84 -76 -93 -90 -93 -7 0 -13 -6 -13 -14 0 -8 -9
-18 -20 -21 -11 -3 -20 -10 -20 -15 0 -5 -16 -17 -36 -26 -20 -9 -38 -23 -41
-31 -3 -7 -10 -13 -15 -13 -5 0 -22 -9 -37 -19 -32 -23 -198 -79 -258 -88 -28
-4 -48 -1 -58 7 -10 8 -15 9 -15 1 0 -43 223 -12 360 52 78 36 218 172 263
255 16 29 26 52 23 52 -2 0 -22 -21 -43 -47z"/>
<path d="M7113 5773 c-1 -152 -26 -378 -48 -436 -4 -10 1 -20 14 -26 11 -6 25
-29 31 -52 9 -33 14 -38 25 -29 8 7 47 13 87 14 l73 2 16 50 c50 150 98 386
113 565 l6 67 -57 5 c-32 3 -103 6 -158 6 l-100 2 -2 -168z"/>
<path d="M4185 4530 c-8 -13 5 -13 25 0 13 8 13 10 -2 10 -9 0 -20 -4 -23 -10z"/>
<path d="M6631 5001 c-23 -15 -5 -43 26 -39 20 2 28 9 28 23 0 22 -31 31 -54
16z"/>
<path d="M1971 4804 c-122 -33 -210 -107 -261 -219 -87 -192 2 -426 198 -518
60 -28 76 -31 167 -31 93 -1 105 1 168 31 84 40 163 117 203 198 26 54 29 70
29 155 0 88 -3 101 -33 162 -59 120 -176 206 -312 227 -81 13 -92 13 -159 -5z
m86 -134 c5 -28 9 -30 48 -30 56 0 103 -17 110 -41 10 -31 -3 -39 -66 -39
l-59 0 0 -49 0 -48 61 -7 c50 -6 68 -13 92 -37 27 -27 29 -35 25 -80 -6 -61
-33 -100 -77 -111 -27 -8 -31 -12 -25 -31 14 -43 10 -52 -23 -55 -30 -3 -33
-1 -33 26 0 39 -6 43 -45 26 -19 -8 -41 -14 -49 -14 -25 0 -57 42 -54 70 3 26
8 27 71 15 l37 -7 0 45 c0 64 -7 77 -41 77 -49 0 -109 37 -125 77 -27 63 -1
122 64 150 27 11 32 18 27 36 -4 12 -9 30 -11 40 -4 14 1 17 31 17 31 0 36 -3
42 -30z"/>
<path d="M1976 4518 c-14 -20 -14 -24 1 -40 9 -10 27 -18 40 -18 20 0 23 5 23
40 0 36 -3 40 -24 40 -14 0 -32 -10 -40 -22z"/>
<path d="M2117 4345 c7 -33 23 -44 51 -34 46 17 19 58 -39 59 -12 0 -15 -7
-12 -25z"/>
<path d="M8433 4800 c-83 -17 -177 -77 -222 -144 -110 -162 -98 -375 30 -521
76 -86 220 -137 327 -116 85 16 194 74 240 126 46 52 97 151 112 218 23 103
-31 270 -111 342 -93 84 -241 121 -376 95z m189 -74 c73 -18 133 -52 148 -85
6 -14 9 -23 5 -19 -4 3 -15 -2 -26 -13 -28 -28 -43 -24 -82 26 l-35 46 -7 -33
c-5 -20 -4 -33 3 -36 24 -8 76 -49 96 -75 l20 -27 -25 -26 -25 -25 -38 36
c-21 20 -45 35 -53 33 -12 -2 -48 -78 -40 -84 1 0 21 -11 43 -24 23 -12 48
-33 54 -46 18 -33 7 -91 -26 -147 -28 -46 -31 -48 -64 -43 -19 3 -43 7 -54 8
-14 2 -22 -6 -31 -31 -13 -38 -23 -45 -44 -32 -12 8 -13 16 -3 47 13 45 11 50
-28 57 -49 10 -80 36 -80 66 0 55 50 69 75 21 16 -31 50 -56 59 -42 2 4 14 31
25 59 l20 52 -34 21 c-19 12 -46 35 -61 53 -22 26 -25 38 -21 75 7 68 42 97
114 97 47 0 57 3 64 20 16 42 15 42 -158 49 -29 1 -17 12 27 24 50 14 116 13
182 -2z"/>
<path d="M8476 4544 c-9 -8 -16 -22 -16 -29 0 -14 50 -55 67 -55 4 0 9 23 11
50 2 47 1 50 -22 50 -14 0 -32 -7 -40 -16z"/>
<path d="M8542 4308 c-11 -29 -18 -56 -16 -60 9 -15 60 10 72 36 12 23 11 31
-2 52 -9 13 -21 24 -26 24 -5 0 -17 -24 -28 -52z"/>
<path d="M7603 3770 c-28 -12 -30 -46 -3 -55 46 -14 88 27 54 52 -20 15 -21
15 -51 3z"/>
<path d="M7822 3748 c3 -20 8 -23 37 -20 41 3 45 6 38 27 -4 10 -19 15 -42 15
-32 0 -36 -3 -33 -22z"/>
<path d="M8076 3748 c-21 -30 -20 -54 4 -78 24 -24 63 -26 84 -4 19 18 21 75
4 92 -21 21 -75 15 -92 -10z"/>
<path d="M6123 1923 c-8 -3 -13 -23 -13 -49 l0 -44 85 0 85 0 -1 33 c-2 30 -2
30 -6 5 -4 -25 -8 -28 -43 -28 -21 0 -42 5 -45 10 -3 6 -19 8 -36 5 -24 -4
-29 -2 -29 14 0 11 6 22 13 24 9 4 8 6 -2 6 -11 1 -11 4 -1 16 13 16 13 16 -7
8z"/>
<path d="M6200 1889 c0 -5 5 -7 10 -4 6 3 10 8 10 11 0 2 -4 4 -10 4 -5 0 -10
-5 -10 -11z"/>
<path d="M6230 1860 c-13 -8 -12 -10 3 -10 9 0 17 5 17 10 0 12 -1 12 -20 0z"/>
<path d="M6808 2830 l3 -250 58 0 c78 0 111 13 141 56 23 35 24 41 22 212 -1
161 -3 177 -21 196 -20 19 -86 34 -166 35 l-40 1 3 -250z"/>
<path d="M7150 1911 c0 -6 4 -13 10 -16 6 -3 7 1 4 9 -7 18 -14 21 -14 7z"/>
<path d="M7180 1880 c-9 -6 -10 -10 -3 -10 6 0 15 5 18 10 8 12 4 12 -15 0z"/>
<path d="M7163 1843 c9 -2 23 -2 30 0 6 3 -1 5 -18 5 -16 0 -22 -2 -12 -5z"/>
<path d="M7218 1843 c7 -3 16 -2 19 1 4 3 -2 6 -13 5 -11 0 -14 -3 -6 -6z"/>
<path d="M6653 1833 c26 -2 67 -2 90 0 23 2 2 3 -48 3 -49 0 -68 -1 -42 -3z"/>
<path d="M7697 2970 c-40 -278 -87 -631 -87 -652 l0 -28 95 0 c90 0 95 1 95
21 0 12 -14 112 -31 223 -17 110 -39 264 -48 341 -15 121 -18 134 -24 95z"/>
<path d="M7511 1964 c0 -11 3 -14 6 -6 3 7 2 16 -1 19 -3 4 -6 -2 -5 -13z"/>
<path d="M7497 1920 c-3 -11 -1 -23 4 -26 5 -3 9 6 9 20 0 31 -6 34 -13 6z"/>
<path d="M7470 1860 c0 -37 2 -41 15 -30 8 7 15 20 15 30 0 10 -7 23 -15 30
-13 11 -15 7 -15 -30z m17 -2 c-3 -8 -6 -5 -6 6 -1 11 2 17 5 13 3 -3 4 -12 1
-19z"/>
<path d="M8370 2546 l0 -536 75 0 c68 0 77 2 107 29 l33 29 5 454 c3 249 1
468 -3 486 -11 46 -42 61 -136 69 l-81 6 0 -537z"/>
<path d="M8183 1875 c0 -33 2 -45 4 -27 2 18 2 45 0 60 -2 15 -4 0 -4 -33z"/>
<path d="M8923 2025 c0 -22 2 -30 4 -17 2 12 2 30 0 40 -3 9 -5 -1 -4 -23z"/>
<path d="M8921 1964 c0 -11 3 -14 6 -6 3 7 2 16 -1 19 -3 4 -6 -2 -5 -13z"/>
<path d="M8920 1861 c0 -23 4 -40 9 -37 9 6 7 63 -3 73 -3 4 -6 -13 -6 -36z"/>
<path d="M2946 2862 c-9 -81 -28 -227 -42 -324 -14 -97 -24 -192 -22 -210 l3
-33 88 -3 87 -3 0 41 c0 22 -16 138 -35 258 -19 119 -38 261 -41 315 -4 54
-10 100 -14 102 -3 2 -14 -62 -24 -143z"/>
<path d="M3650 2938 c0 -80 3 -193 7 -253 l6 -107 68 4 c136 10 150 38 142
278 -7 210 -8 210 -110 210 -38 0 -78 3 -90 6 l-23 6 0 -144z"/>
<path d="M5437 1484 c-4 -4 -7 -54 -7 -111 0 -117 -3 -115 88 -88 58 18 92 53
92 97 0 39 -15 65 -48 82 -33 17 -114 30 -125 20z"/>
<path d="M3774 1453 c3 -21 5 -44 6 -50 0 -19 100 -17 128 3 27 19 29 60 3 74
-11 5 -47 10 -81 10 l-62 0 6 -37z"/>
<path d="M4330 1434 l0 -57 57 6 c67 7 99 32 89 70 -6 25 -40 37 -113 37 l-33
0 0 -56z"/>
<path d="M4920 1418 c-11 -18 -20 -39 -20 -45 0 -7 -1 -16 -2 -19 -4 -7 94
-14 104 -7 10 5 -25 75 -46 92 -13 11 -18 8 -36 -21z"/>
<path d="M6620 1440 c0 -46 2 -50 24 -50 12 0 37 5 55 11 75 26 51 89 -34 89
l-45 0 0 -50z"/>
<path d="M7461 1473 c-34 -29 -43 -75 -20 -112 24 -39 77 -66 114 -57 30 8 55
56 55 106 0 67 -95 107 -149 63z"/>
<path d="M7010 1464 c0 -58 10 -67 61 -59 24 4 52 11 62 17 43 22 2 66 -72 75
l-51 6 0 -39z"/>
</g>
</svg>
